# Blender v2.81 (sub 16) OBJ File: 'temple_top.blend'
# www.blender.org
mtllib temple_top.mtl
o Cube
v -1.500000 3.000000 -2.000000
v -2.000000 3.000000 -1.500000
v -2.000000 0.000000 -1.500000
v -1.500000 0.000000 -2.000000
v -2.000000 3.000000 -2.000000
v -2.000000 0.000000 -2.000000
vt 0.875000 0.500000
vt 0.875000 0.750000
vt 0.625000 0.750000
vt 0.375000 0.750000
vt 0.625000 1.000000
vt 0.375000 1.000000
vt 0.375000 0.000000
vt 0.625000 0.000000
vt 0.625000 0.250000
vt 0.375000 0.250000
vt 0.375000 0.500000
vt 0.125000 0.750000
vt 0.625000 0.500000
vn 0.0000 1.0000 0.0000
vn -1.0000 0.0000 0.0000
vn 0.0000 0.0000 -1.0000
vn 0.0000 -1.0000 0.0000
vn 0.7071 0.0000 0.7071
usemtl Material
s off
f 1/1/1 5/2/1 2/3/1
f 3/4/2 2/3/2 5/5/2 6/6/2
f 6/7/3 5/8/3 1/9/3 4/10/3
f 4/11/4 3/4/4 6/12/4
f 4/11/5 1/13/5 2/3/5 3/4/5
o Cube.001
v 2.000000 3.000000 -1.500000
v 1.500000 3.000000 -2.000000
v 1.500000 0.000000 -2.000000
v 2.000000 0.000000 -1.500000
v 2.000000 3.000000 -2.000000
v 2.000000 0.000000 -2.000000
vt 0.875000 0.500000
vt 0.875000 0.750000
vt 0.625000 0.750000
vt 0.375000 0.750000
vt 0.625000 1.000000
vt 0.375000 1.000000
vt 0.375000 0.000000
vt 0.625000 0.000000
vt 0.625000 0.250000
vt 0.375000 0.250000
vt 0.375000 0.500000
vt 0.125000 0.750000
vt 0.625000 0.500000
vn 0.0000 1.0000 0.0000
vn 0.0000 0.0000 -1.0000
vn 1.0000 0.0000 0.0000
vn 0.0000 -1.0000 0.0000
vn -0.7071 0.0000 0.7071
usemtl Material.001
s off
f 7/14/6 11/15/6 8/16/6
f 9/17/7 8/16/7 11/18/7 12/19/7
f 12/20/8 11/21/8 7/22/8 10/23/8
f 10/24/9 9/17/9 12/25/9
f 10/24/10 7/26/10 8/16/10 9/17/10
o Cube.002
v -2.000000 3.000000 1.500000
v -1.500000 3.000000 2.000000
v -1.500000 0.000000 2.000000
v -2.000000 0.000000 1.500000
v -2.000000 3.000000 2.000000
v -2.000000 0.000000 2.000000
vt 0.875000 0.500000
vt 0.875000 0.750000
vt 0.625000 0.750000
vt 0.375000 0.750000
vt 0.625000 1.000000
vt 0.375000 1.000000
vt 0.375000 0.000000
vt 0.625000 0.000000
vt 0.625000 0.250000
vt 0.375000 0.250000
vt 0.375000 0.500000
vt 0.125000 0.750000
vt 0.625000 0.500000
vn 0.0000 1.0000 0.0000
vn 0.0000 0.0000 1.0000
vn -1.0000 0.0000 0.0000
vn 0.0000 -1.0000 0.0000
vn 0.7071 0.0000 -0.7071
usemtl Material.002
s off
f 13/27/11 17/28/11 14/29/11
f 15/30/12 14/29/12 17/31/12 18/32/12
f 18/33/13 17/34/13 13/35/13 16/36/13
f 16/37/14 15/30/14 18/38/14
f 16/37/15 13/39/15 14/29/15 15/30/15
o Cube.003
v 1.500000 3.000000 2.000000
v 2.000000 3.000000 1.500000
v 2.000000 0.000000 1.500000
v 1.500000 0.000000 2.000000
v 2.000000 3.000000 2.000000
v 2.000000 0.000000 2.000000
vt 0.875000 0.500000
vt 0.875000 0.750000
vt 0.625000 0.750000
vt 0.375000 0.750000
vt 0.625000 1.000000
vt 0.375000 1.000000
vt 0.375000 0.000000
vt 0.625000 0.000000
vt 0.625000 0.250000
vt 0.375000 0.250000
vt 0.375000 0.500000
vt 0.125000 0.750000
vt 0.625000 0.500000
vn 0.0000 1.0000 0.0000
vn 1.0000 0.0000 0.0000
vn 0.0000 0.0000 1.0000
vn 0.0000 -1.0000 0.0000
vn -0.7071 0.0000 -0.7071
usemtl Material.003
s off
f 19/40/16 23/41/16 20/42/16
f 21/43/17 20/42/17 23/44/17 24/45/17
f 24/46/18 23/47/18 19/48/18 22/49/18
f 22/50/19 21/43/19 24/51/19
f 22/50/20 19/52/20 20/42/20 21/43/20
o Cube.004
v -1.500000 3.000000 1.500000
v -1.500000 3.500000 1.500000
v -1.500000 3.000000 -1.500000
v -1.500000 3.500000 -1.500000
v 1.500000 3.000000 1.500000
v 1.500000 3.500000 1.500000
v 1.500000 3.000000 -1.500000
v 1.500000 3.500000 -1.500000
vt 0.375000 0.000000
vt 0.625000 0.000000
vt 0.625000 0.250000
vt 0.375000 0.250000
vt 0.625000 0.500000
vt 0.375000 0.500000
vt 0.625000 0.750000
vt 0.375000 0.750000
vt 0.625000 1.000000
vt 0.375000 1.000000
vt 0.125000 0.500000
vt 0.125000 0.750000
vt 0.875000 0.500000
vt 0.875000 0.750000
vn -1.0000 0.0000 0.0000
vn 0.0000 0.0000 -1.0000
vn 1.0000 0.0000 0.0000
vn 0.0000 0.0000 1.0000
vn 0.0000 -1.0000 0.0000
vn 0.0000 1.0000 0.0000
usemtl None
s off
f 25/53/21 26/54/21 28/55/21 27/56/21
f 27/56/22 28/55/22 32/57/22 31/58/22
f 31/58/23 32/57/23 30/59/23 29/60/23
f 29/60/24 30/59/24 26/61/24 25/62/24
f 27/63/25 31/58/25 29/60/25 25/64/25
f 32/57/26 28/65/26 26/66/26 30/59/26
o Cube.005
v -1.500000 3.000000 -2.000000
v -1.500000 3.500000 -1.500000
v 1.500000 3.500000 -1.500000
v 1.500000 3.000000 -2.000000
v -1.500000 3.000000 -1.500000
v 1.500000 3.000000 -1.500000
vt 0.875000 0.500000
vt 0.875000 0.750000
vt 0.625000 0.750000
vt 0.375000 0.750000
vt 0.625000 1.000000
vt 0.375000 1.000000
vt 0.375000 0.000000
vt 0.625000 0.000000
vt 0.625000 0.250000
vt 0.375000 0.250000
vt 0.375000 0.500000
vt 0.125000 0.750000
vt 0.625000 0.500000
vn -1.0000 0.0000 0.0000
vn 0.0000 0.0000 1.0000
vn 0.0000 -1.0000 0.0000
vn 1.0000 0.0000 0.0000
vn 0.0000 0.7071 -0.7071
usemtl Material.004
s off
f 33/67/27 37/68/27 34/69/27
f 35/70/28 34/69/28 37/71/28 38/72/28
f 38/73/29 37/74/29 33/75/29 36/76/29
f 36/77/30 35/70/30 38/78/30
f 36/77/31 33/79/31 34/69/31 35/70/31
o Cube.006
v 2.000000 3.000000 -1.500000
v 1.500000 3.500000 -1.500000
v 1.500000 3.500000 1.500000
v 2.000000 3.000000 1.500000
v 1.500000 3.000000 -1.500000
v 1.500000 3.000000 1.500000
vt 0.875000 0.500000
vt 0.875000 0.750000
vt 0.625000 0.750000
vt 0.375000 0.750000
vt 0.625000 1.000000
vt 0.375000 1.000000
vt 0.375000 0.000000
vt 0.625000 0.000000
vt 0.625000 0.250000
vt 0.375000 0.250000
vt 0.375000 0.500000
vt 0.125000 0.750000
vt 0.625000 0.500000
vn 0.0000 0.0000 -1.0000
vn -1.0000 0.0000 -0.0000
vn 0.0000 -1.0000 0.0000
vn 0.0000 0.0000 1.0000
vn 0.7071 0.7071 0.0000
usemtl Material.005
s off
f 39/80/32 43/81/32 40/82/32
f 41/83/33 40/82/33 43/84/33 44/85/33
f 44/86/34 43/87/34 39/88/34 42/89/34
f 42/90/35 41/83/35 44/91/35
f 42/90/36 39/92/36 40/82/36 41/83/36
o Cube.007
v 1.500000 3.000000 2.000000
v 1.500000 3.500000 1.500000
v -1.500000 3.500000 1.500000
v -1.500000 3.000000 2.000000
v 1.500000 3.000000 1.500000
v -1.500000 3.000000 1.500000
vt 0.875000 0.500000
vt 0.875000 0.750000
vt 0.625000 0.750000
vt 0.375000 0.750000
vt 0.625000 1.000000
vt 0.375000 1.000000
vt 0.375000 0.000000
vt 0.625000 0.000000
vt 0.625000 0.250000
vt 0.375000 0.250000
vt 0.375000 0.500000
vt 0.125000 0.750000
vt 0.625000 0.500000
vn 1.0000 0.0000 0.0000
vn -0.0000 0.0000 -1.0000
vn 0.0000 -1.0000 0.0000
vn -1.0000 0.0000 0.0000
vn 0.0000 0.7071 0.7071
usemtl Material.006
s off
f 45/93/37 49/94/37 46/95/37
f 47/96/38 46/95/38 49/97/38 50/98/38
f 50/99/39 49/100/39 45/101/39 48/102/39
f 48/103/40 47/96/40 50/104/40
f 48/103/41 45/105/41 46/95/41 47/96/41
o Cube.008
v -2.000000 3.000000 1.500000
v -1.500000 3.500000 1.500000
v -1.500000 3.500000 -1.500000
v -2.000000 3.000000 -1.500000
v -1.500000 3.000000 1.500000
v -1.500000 3.000000 -1.500000
vt 0.875000 0.500000
vt 0.875000 0.750000
vt 0.625000 0.750000
vt 0.375000 0.750000
vt 0.625000 1.000000
vt 0.375000 1.000000
vt 0.375000 0.000000
vt 0.625000 0.000000
vt 0.625000 0.250000
vt 0.375000 0.250000
vt 0.375000 0.500000
vt 0.125000 0.750000
vt 0.625000 0.500000
vn 0.0000 0.0000 1.0000
vn 1.0000 0.0000 -0.0000
vn 0.0000 -1.0000 0.0000
vn 0.0000 0.0000 -1.0000
vn -0.7071 0.7071 0.0000
usemtl Material.007
s off
f 51/106/42 55/107/42 52/108/42
f 53/109/43 52/108/43 55/110/43 56/111/43
f 56/112/44 55/113/44 51/114/44 54/115/44
f 54/116/45 53/109/45 56/117/45
f 54/116/46 51/118/46 52/108/46 53/109/46
o Cube.009
v -2.000000 3.000000 -2.000000
v -1.500000 3.500000 -1.500000
v -1.500000 3.000000 -2.000000
v -2.000000 3.000000 -1.500000
v -1.500000 3.000000 -1.500000
vt 0.875000 0.500000
vt 0.875000 0.750000
vt 0.625000 0.750000
vt 0.625000 1.000000
vt 0.375000 1.000000
vt 0.375000 0.000000
vt 0.625000 0.000000
vt 0.625000 0.250000
vt 0.375000 0.250000
vt 0.375000 0.500000
vt 0.375000 0.750000
vt 0.125000 0.750000
vt 0.625000 0.500000
vn -0.7071 0.7071 0.0000
vn 0.0000 0.0000 1.0000
vn 0.0000 -1.0000 0.0000
vn 1.0000 0.0000 0.0000
vn 0.0000 0.7071 -0.7071
usemtl Material.008
s off
f 57/119/47 60/120/47 58/121/47
f 58/121/48 60/122/48 61/123/48
f 61/124/49 60/125/49 57/126/49 59/127/49
f 59/128/50 58/129/50 61/130/50
f 59/128/51 57/131/51 58/129/51
o Cube.010
v -2.000000 3.000000 2.000000
v -1.500000 3.500000 1.500000
v -2.000000 3.000000 1.500000
v -1.500000 3.000000 2.000000
v -1.500000 3.000000 1.500000
vt 0.875000 0.500000
vt 0.875000 0.750000
vt 0.625000 0.750000
vt 0.625000 1.000000
vt 0.375000 1.000000
vt 0.375000 0.000000
vt 0.625000 0.000000
vt 0.625000 0.250000
vt 0.375000 0.250000
vt 0.375000 0.500000
vt 0.375000 0.750000
vt 0.125000 0.750000
vt 0.625000 0.500000
vn 0.0000 0.7071 0.7071
vn 1.0000 0.0000 0.0000
vn 0.0000 -1.0000 0.0000
vn 0.0000 0.0000 -1.0000
vn -0.7071 0.7071 0.0000
usemtl Material.009
s off
f 62/132/52 65/133/52 63/134/52
f 63/134/53 65/135/53 66/136/53
f 66/137/54 65/138/54 62/139/54 64/140/54
f 64/141/55 63/142/55 66/143/55
f 64/141/56 62/144/56 63/142/56
o Cube.011
v 2.000000 3.000000 -2.000000
v 1.500000 3.500000 -1.500000
v 2.000000 3.000000 -1.500000
v 1.500000 3.000000 -2.000000
v 1.500000 3.000000 -1.500000
vt 0.875000 0.500000
vt 0.875000 0.750000
vt 0.625000 0.750000
vt 0.625000 1.000000
vt 0.375000 1.000000
vt 0.375000 0.000000
vt 0.625000 0.000000
vt 0.625000 0.250000
vt 0.375000 0.250000
vt 0.375000 0.500000
vt 0.375000 0.750000
vt 0.125000 0.750000
vt 0.625000 0.500000
vn 0.0000 0.7071 -0.7071
vn -1.0000 0.0000 0.0000
vn 0.0000 -1.0000 0.0000
vn 0.0000 0.0000 1.0000
vn 0.7071 0.7071 0.0000
usemtl Material.010
s off
f 67/145/57 70/146/57 68/147/57
f 68/147/58 70/148/58 71/149/58
f 71/150/59 70/151/59 67/152/59 69/153/59
f 69/154/60 68/155/60 71/156/60
f 69/154/61 67/157/61 68/155/61
o Cube.012
v 2.000000 3.000000 2.000000
v 1.500000 3.500000 1.500000
v 1.500000 3.000000 2.000000
v 2.000000 3.000000 1.500000
v 1.500000 3.000000 1.500000
vt 0.875000 0.500000
vt 0.875000 0.750000
vt 0.625000 0.750000
vt 0.625000 1.000000
vt 0.375000 1.000000
vt 0.375000 0.000000
vt 0.625000 0.000000
vt 0.625000 0.250000
vt 0.375000 0.250000
vt 0.375000 0.500000
vt 0.375000 0.750000
vt 0.125000 0.750000
vt 0.625000 0.500000
vn 0.7071 0.7071 0.0000
vn 0.0000 0.0000 -1.0000
vn 0.0000 -1.0000 0.0000
vn -1.0000 0.0000 0.0000
vn 0.0000 0.7071 0.7071
usemtl Material.011
s off
f 72/158/62 75/159/62 73/160/62
f 73/160/63 75/161/63 76/162/63
f 76/163/64 75/164/64 72/165/64 74/166/64
f 74/167/65 73/168/65 76/169/65
f 74/167/66 72/170/66 73/168/66
o Cube.013
v 1.200000 3.500000 1.300000
v 1.200000 3.550000 1.300000
v 1.200000 3.500000 -1.300000
v 1.200000 3.550000 -1.300000
v 1.300000 3.500000 1.300000
v 1.300000 3.550000 1.300000
v 1.300000 3.500000 -1.300000
v 1.300000 3.550000 -1.300000
vt 0.375000 0.000000
vt 0.625000 0.000000
vt 0.625000 0.250000
vt 0.375000 0.250000
vt 0.625000 0.500000
vt 0.375000 0.500000
vt 0.625000 0.750000
vt 0.375000 0.750000
vt 0.625000 1.000000
vt 0.375000 1.000000
vt 0.125000 0.500000
vt 0.125000 0.750000
vt 0.875000 0.500000
vt 0.875000 0.750000
vn -1.0000 0.0000 0.0000
vn 0.0000 0.0000 -1.0000
vn 1.0000 0.0000 0.0000
vn 0.0000 0.0000 1.0000
vn 0.0000 -1.0000 0.0000
vn 0.0000 1.0000 0.0000
usemtl None
s off
f 77/171/67 78/172/67 80/173/67 79/174/67
f 79/174/68 80/173/68 84/175/68 83/176/68
f 83/176/69 84/175/69 82/177/69 81/178/69
f 81/178/70 82/177/70 78/179/70 77/180/70
f 79/181/71 83/176/71 81/178/71 77/182/71
f 84/175/72 80/183/72 78/184/72 82/177/72
o Cube.014
v -1.300000 3.500000 1.300000
v -1.300000 3.550000 1.300000
v -1.300000 3.500000 -1.300000
v -1.300000 3.550000 -1.300000
v -1.200000 3.500000 1.300000
v -1.200000 3.550000 1.300000
v -1.200000 3.500000 -1.300000
v -1.200000 3.550000 -1.300000
vt 0.375000 0.000000
vt 0.625000 0.000000
vt 0.625000 0.250000
vt 0.375000 0.250000
vt 0.625000 0.500000
vt 0.375000 0.500000
vt 0.625000 0.750000
vt 0.375000 0.750000
vt 0.625000 1.000000
vt 0.375000 1.000000
vt 0.125000 0.500000
vt 0.125000 0.750000
vt 0.875000 0.500000
vt 0.875000 0.750000
vn -1.0000 0.0000 0.0000
vn 0.0000 0.0000 -1.0000
vn 1.0000 0.0000 0.0000
vn 0.0000 0.0000 1.0000
vn 0.0000 -1.0000 0.0000
vn 0.0000 1.0000 0.0000
usemtl None
s off
f 85/185/73 86/186/73 88/187/73 87/188/73
f 87/188/74 88/187/74 92/189/74 91/190/74
f 91/190/75 92/189/75 90/191/75 89/192/75
f 89/192/76 90/191/76 86/193/76 85/194/76
f 87/195/77 91/190/77 89/192/77 85/196/77
f 92/189/78 88/197/78 86/198/78 90/191/78
o Cube.015
v 1.200000 3.500000 1.300000
v 1.200000 3.550000 1.300000
v -1.200000 3.500000 1.300000
v -1.200000 3.550000 1.300000
v 1.200000 3.500000 1.200000
v 1.200000 3.550000 1.200000
v -1.200000 3.500000 1.200000
v -1.200000 3.550000 1.200000
vt 0.375000 0.000000
vt 0.625000 0.000000
vt 0.625000 0.250000
vt 0.375000 0.250000
vt 0.625000 0.500000
vt 0.375000 0.500000
vt 0.625000 0.750000
vt 0.375000 0.750000
vt 0.625000 1.000000
vt 0.375000 1.000000
vt 0.125000 0.500000
vt 0.125000 0.750000
vt 0.875000 0.500000
vt 0.875000 0.750000
vn 0.0000 0.0000 1.0000
vn -1.0000 0.0000 0.0000
vn -0.0000 0.0000 -1.0000
vn 1.0000 0.0000 0.0000
vn 0.0000 -1.0000 0.0000
vn 0.0000 1.0000 0.0000
usemtl None
s off
f 93/199/79 94/200/79 96/201/79 95/202/79
f 95/202/80 96/201/80 100/203/80 99/204/80
f 99/204/81 100/203/81 98/205/81 97/206/81
f 97/206/82 98/205/82 94/207/82 93/208/82
f 95/209/83 99/204/83 97/206/83 93/210/83
f 100/203/84 96/211/84 94/212/84 98/205/84
o Cube.016
v 1.200000 3.500000 -1.200000
v 1.200000 3.550000 -1.200000
v -1.200000 3.500000 -1.200000
v -1.200000 3.550000 -1.200000
v 1.200000 3.500000 -1.300000
v 1.200000 3.550000 -1.300000
v -1.200000 3.500000 -1.300000
v -1.200000 3.550000 -1.300000
vt 0.375000 0.000000
vt 0.625000 0.000000
vt 0.625000 0.250000
vt 0.375000 0.250000
vt 0.625000 0.500000
vt 0.375000 0.500000
vt 0.625000 0.750000
vt 0.375000 0.750000
vt 0.625000 1.000000
vt 0.375000 1.000000
vt 0.125000 0.500000
vt 0.125000 0.750000
vt 0.875000 0.500000
vt 0.875000 0.750000
vn 0.0000 0.0000 1.0000
vn -1.0000 0.0000 0.0000
vn -0.0000 0.0000 -1.0000
vn 1.0000 0.0000 0.0000
vn 0.0000 -1.0000 0.0000
vn 0.0000 1.0000 0.0000
usemtl None
s off
f 101/213/85 102/214/85 104/215/85 103/216/85
f 103/216/86 104/215/86 108/217/86 107/218/86
f 107/218/87 108/217/87 106/219/87 105/220/87
f 105/220/88 106/219/88 102/221/88 101/222/88
f 103/223/89 107/218/89 105/220/89 101/224/89
f 108/217/90 104/225/90 102/226/90 106/219/90
