# Blender v2.81 (sub 16) OBJ File: 'temple_top.blend'
# www.blender.org
mtllib temple_top_structure.mtl
o Cube.004
v -1.500000 3.000000 1.500000
v -1.500000 3.500000 1.500000
v -1.500000 3.000000 -1.500000
v -1.500000 3.500000 -1.500000
v 1.500000 3.000000 1.500000
v 1.500000 3.500000 1.500000
v 1.500000 3.000000 -1.500000
v 1.500000 3.500000 -1.500000
vt 0.375000 0.000000
vt 0.625000 0.000000
vt 0.625000 0.250000
vt 0.375000 0.250000
vt 0.625000 0.500000
vt 0.375000 0.500000
vt 0.625000 0.750000
vt 0.375000 0.750000
vt 0.625000 1.000000
vt 0.375000 1.000000
vt 0.125000 0.500000
vt 0.125000 0.750000
vt 0.875000 0.500000
vt 0.875000 0.750000
vn -1.0000 0.0000 0.0000
vn 0.0000 0.0000 -1.0000
vn 1.0000 0.0000 0.0000
vn 0.0000 0.0000 1.0000
vn 0.0000 -1.0000 0.0000
vn 0.0000 1.0000 0.0000
usemtl None
s off
f 1/1/1 2/2/1 4/3/1 3/4/1
f 3/4/2 4/3/2 8/5/2 7/6/2
f 7/6/3 8/5/3 6/7/3 5/8/3
f 5/8/4 6/7/4 2/9/4 1/10/4
f 3/11/5 7/6/5 5/8/5 1/12/5
f 8/5/6 4/13/6 2/14/6 6/7/6
o Cube.005
v -1.500000 3.000000 -2.000000
v -1.500000 3.500000 -1.500000
v 1.500000 3.500000 -1.500000
v 1.500000 3.000000 -2.000000
v -1.500000 3.000000 -1.500000
v 1.500000 3.000000 -1.500000
vt 0.875000 0.500000
vt 0.875000 0.750000
vt 0.625000 0.750000
vt 0.375000 0.750000
vt 0.625000 1.000000
vt 0.375000 1.000000
vt 0.375000 0.000000
vt 0.625000 0.000000
vt 0.625000 0.250000
vt 0.375000 0.250000
vt 0.375000 0.500000
vt 0.125000 0.750000
vt 0.625000 0.500000
vn -1.0000 0.0000 0.0000
vn 0.0000 0.0000 1.0000
vn 0.0000 -1.0000 0.0000
vn 1.0000 0.0000 0.0000
vn 0.0000 0.7071 -0.7071
usemtl Material.004
s off
f 9/15/7 13/16/7 10/17/7
f 11/18/8 10/17/8 13/19/8 14/20/8
f 14/21/9 13/22/9 9/23/9 12/24/9
f 12/25/10 11/18/10 14/26/10
f 12/25/11 9/27/11 10/17/11 11/18/11
o Cube.006
v 2.000000 3.000000 -1.500000
v 1.500000 3.500000 -1.500000
v 1.500000 3.500000 1.500000
v 2.000000 3.000000 1.500000
v 1.500000 3.000000 -1.500000
v 1.500000 3.000000 1.500000
vt 0.875000 0.500000
vt 0.875000 0.750000
vt 0.625000 0.750000
vt 0.375000 0.750000
vt 0.625000 1.000000
vt 0.375000 1.000000
vt 0.375000 0.000000
vt 0.625000 0.000000
vt 0.625000 0.250000
vt 0.375000 0.250000
vt 0.375000 0.500000
vt 0.125000 0.750000
vt 0.625000 0.500000
vn 0.0000 0.0000 -1.0000
vn -1.0000 0.0000 -0.0000
vn 0.0000 -1.0000 0.0000
vn 0.0000 0.0000 1.0000
vn 0.7071 0.7071 0.0000
usemtl Material.005
s off
f 15/28/12 19/29/12 16/30/12
f 17/31/13 16/30/13 19/32/13 20/33/13
f 20/34/14 19/35/14 15/36/14 18/37/14
f 18/38/15 17/31/15 20/39/15
f 18/38/16 15/40/16 16/30/16 17/31/16
o Cube.007
v 1.500000 3.000000 2.000000
v 1.500000 3.500000 1.500000
v -1.500000 3.500000 1.500000
v -1.500000 3.000000 2.000000
v 1.500000 3.000000 1.500000
v -1.500000 3.000000 1.500000
vt 0.875000 0.500000
vt 0.875000 0.750000
vt 0.625000 0.750000
vt 0.375000 0.750000
vt 0.625000 1.000000
vt 0.375000 1.000000
vt 0.375000 0.000000
vt 0.625000 0.000000
vt 0.625000 0.250000
vt 0.375000 0.250000
vt 0.375000 0.500000
vt 0.125000 0.750000
vt 0.625000 0.500000
vn 1.0000 0.0000 0.0000
vn -0.0000 0.0000 -1.0000
vn 0.0000 -1.0000 0.0000
vn -1.0000 0.0000 0.0000
vn 0.0000 0.7071 0.7071
usemtl Material.006
s off
f 21/41/17 25/42/17 22/43/17
f 23/44/18 22/43/18 25/45/18 26/46/18
f 26/47/19 25/48/19 21/49/19 24/50/19
f 24/51/20 23/44/20 26/52/20
f 24/51/21 21/53/21 22/43/21 23/44/21
o Cube.008
v -2.000000 3.000000 1.500000
v -1.500000 3.500000 1.500000
v -1.500000 3.500000 -1.500000
v -2.000000 3.000000 -1.500000
v -1.500000 3.000000 1.500000
v -1.500000 3.000000 -1.500000
vt 0.875000 0.500000
vt 0.875000 0.750000
vt 0.625000 0.750000
vt 0.375000 0.750000
vt 0.625000 1.000000
vt 0.375000 1.000000
vt 0.375000 0.000000
vt 0.625000 0.000000
vt 0.625000 0.250000
vt 0.375000 0.250000
vt 0.375000 0.500000
vt 0.125000 0.750000
vt 0.625000 0.500000
vn 0.0000 0.0000 1.0000
vn 1.0000 0.0000 -0.0000
vn 0.0000 -1.0000 0.0000
vn 0.0000 0.0000 -1.0000
vn -0.7071 0.7071 0.0000
usemtl Material.007
s off
f 27/54/22 31/55/22 28/56/22
f 29/57/23 28/56/23 31/58/23 32/59/23
f 32/60/24 31/61/24 27/62/24 30/63/24
f 30/64/25 29/57/25 32/65/25
f 30/64/26 27/66/26 28/56/26 29/57/26
o Cube.009
v -2.000000 3.000000 -2.000000
v -1.500000 3.500000 -1.500000
v -1.500000 3.000000 -2.000000
v -2.000000 3.000000 -1.500000
v -1.500000 3.000000 -1.500000
vt 0.875000 0.500000
vt 0.875000 0.750000
vt 0.625000 0.750000
vt 0.625000 1.000000
vt 0.375000 1.000000
vt 0.375000 0.000000
vt 0.625000 0.000000
vt 0.625000 0.250000
vt 0.375000 0.250000
vt 0.375000 0.500000
vt 0.375000 0.750000
vt 0.125000 0.750000
vt 0.625000 0.500000
vn -0.7071 0.7071 0.0000
vn 0.0000 0.0000 1.0000
vn 0.0000 -1.0000 0.0000
vn 1.0000 0.0000 0.0000
vn 0.0000 0.7071 -0.7071
usemtl Material.008
s off
f 33/67/27 36/68/27 34/69/27
f 34/69/28 36/70/28 37/71/28
f 37/72/29 36/73/29 33/74/29 35/75/29
f 35/76/30 34/77/30 37/78/30
f 35/76/31 33/79/31 34/77/31
o Cube.010
v -2.000000 3.000000 2.000000
v -1.500000 3.500000 1.500000
v -2.000000 3.000000 1.500000
v -1.500000 3.000000 2.000000
v -1.500000 3.000000 1.500000
vt 0.875000 0.500000
vt 0.875000 0.750000
vt 0.625000 0.750000
vt 0.625000 1.000000
vt 0.375000 1.000000
vt 0.375000 0.000000
vt 0.625000 0.000000
vt 0.625000 0.250000
vt 0.375000 0.250000
vt 0.375000 0.500000
vt 0.375000 0.750000
vt 0.125000 0.750000
vt 0.625000 0.500000
vn 0.0000 0.7071 0.7071
vn 1.0000 0.0000 0.0000
vn 0.0000 -1.0000 0.0000
vn 0.0000 0.0000 -1.0000
vn -0.7071 0.7071 0.0000
usemtl Material.009
s off
f 38/80/32 41/81/32 39/82/32
f 39/82/33 41/83/33 42/84/33
f 42/85/34 41/86/34 38/87/34 40/88/34
f 40/89/35 39/90/35 42/91/35
f 40/89/36 38/92/36 39/90/36
o Cube.011
v 2.000000 3.000000 -2.000000
v 1.500000 3.500000 -1.500000
v 2.000000 3.000000 -1.500000
v 1.500000 3.000000 -2.000000
v 1.500000 3.000000 -1.500000
vt 0.875000 0.500000
vt 0.875000 0.750000
vt 0.625000 0.750000
vt 0.625000 1.000000
vt 0.375000 1.000000
vt 0.375000 0.000000
vt 0.625000 0.000000
vt 0.625000 0.250000
vt 0.375000 0.250000
vt 0.375000 0.500000
vt 0.375000 0.750000
vt 0.125000 0.750000
vt 0.625000 0.500000
vn 0.0000 0.7071 -0.7071
vn -1.0000 0.0000 0.0000
vn 0.0000 -1.0000 0.0000
vn 0.0000 0.0000 1.0000
vn 0.7071 0.7071 0.0000
usemtl Material.010
s off
f 43/93/37 46/94/37 44/95/37
f 44/95/38 46/96/38 47/97/38
f 47/98/39 46/99/39 43/100/39 45/101/39
f 45/102/40 44/103/40 47/104/40
f 45/102/41 43/105/41 44/103/41
o Cube.012
v 2.000000 3.000000 2.000000
v 1.500000 3.500000 1.500000
v 1.500000 3.000000 2.000000
v 2.000000 3.000000 1.500000
v 1.500000 3.000000 1.500000
vt 0.875000 0.500000
vt 0.875000 0.750000
vt 0.625000 0.750000
vt 0.625000 1.000000
vt 0.375000 1.000000
vt 0.375000 0.000000
vt 0.625000 0.000000
vt 0.625000 0.250000
vt 0.375000 0.250000
vt 0.375000 0.500000
vt 0.375000 0.750000
vt 0.125000 0.750000
vt 0.625000 0.500000
vn 0.7071 0.7071 0.0000
vn 0.0000 0.0000 -1.0000
vn 0.0000 -1.0000 0.0000
vn -1.0000 0.0000 0.0000
vn 0.0000 0.7071 0.7071
usemtl Material.011
s off
f 48/106/42 51/107/42 49/108/42
f 49/108/43 51/109/43 52/110/43
f 52/111/44 51/112/44 48/113/44 50/114/44
f 50/115/45 49/116/45 52/117/45
f 50/115/46 48/118/46 49/116/46
