# Blender v2.90.0 OBJ File: ''
# www.blender.org
mtllib table.mtl
o Cube
v -0.940992 0.939062 0.120947
v -1.647139 -0.932129 0.120947
v -0.940992 0.939062 -0.120947
v -1.647139 -0.932129 -0.120947
v -0.352861 0.932129 0.120947
v -1.059008 -0.939062 0.120947
v -0.352861 0.932129 -0.120947
v -1.059008 -0.939062 -0.120947
vt 0.625000 0.500000
vt 0.875000 0.500000
vt 0.875000 0.750000
vt 0.625000 0.750000
vt 0.375000 0.750000
vt 0.625000 1.000000
vt 0.375000 1.000000
vt 0.375000 0.000000
vt 0.625000 0.000000
vt 0.625000 0.250000
vt 0.375000 0.250000
vt 0.125000 0.500000
vt 0.375000 0.500000
vt 0.125000 0.750000
vn 0.0118 0.9999 0.0000
vn 0.0000 0.0000 -1.0000
vn 0.9356 -0.3531 0.0000
vn -0.0118 -0.9999 0.0000
vn -0.9356 0.3531 0.0000
vn 0.0000 0.0000 1.0000
usemtl Material
s off
f 1/1/1 5/2/1 7/3/1 3/4/1
f 4/5/2 3/4/2 7/6/2 8/7/2
f 8/8/3 7/9/3 5/10/3 6/11/3
f 6/12/4 2/13/4 4/5/4 8/14/4
f 2/13/5 1/1/5 3/4/5 4/5/5
f 6/11/6 5/10/6 1/1/6 2/13/6
o Cube.001
v 0.940992 0.939062 -0.120947
v 1.647139 -0.932129 -0.120947
v 0.940992 0.939062 0.120947
v 1.647139 -0.932129 0.120947
v 0.352861 0.932129 -0.120947
v 1.059008 -0.939062 -0.120947
v 0.352861 0.932129 0.120947
v 1.059008 -0.939062 0.120947
vt 0.625000 0.500000
vt 0.875000 0.500000
vt 0.875000 0.750000
vt 0.625000 0.750000
vt 0.375000 0.750000
vt 0.625000 1.000000
vt 0.375000 1.000000
vt 0.375000 0.000000
vt 0.625000 0.000000
vt 0.625000 0.250000
vt 0.375000 0.250000
vt 0.125000 0.500000
vt 0.375000 0.500000
vt 0.125000 0.750000
vn -0.0118 0.9999 0.0000
vn 0.0000 0.0000 1.0000
vn -0.9356 -0.3531 0.0000
vn 0.0118 -0.9999 0.0000
vn 0.9356 0.3531 -0.0000
vn -0.0000 -0.0000 -1.0000
usemtl Material.001
s off
f 9/15/7 13/16/7 15/17/7 11/18/7
f 12/19/8 11/18/8 15/20/8 16/21/8
f 16/22/9 15/23/9 13/24/9 14/25/9
f 14/26/10 10/27/10 12/19/10 16/28/10
f 10/27/11 9/15/11 11/18/11 12/19/11
f 14/25/12 13/24/12 9/15/12 10/27/12
o Cube.003
v -0.940992 0.939062 -4.215778
v -1.647139 -0.932129 -4.215778
v -0.940992 0.939062 -4.457673
v -1.647139 -0.932129 -4.457673
v -0.352861 0.932129 -4.215778
v -1.059008 -0.939062 -4.215778
v -0.352861 0.932129 -4.457673
v -1.059008 -0.939062 -4.457673
vt 0.625000 0.500000
vt 0.875000 0.500000
vt 0.875000 0.750000
vt 0.625000 0.750000
vt 0.375000 0.750000
vt 0.625000 1.000000
vt 0.375000 1.000000
vt 0.375000 0.000000
vt 0.625000 0.000000
vt 0.625000 0.250000
vt 0.375000 0.250000
vt 0.125000 0.500000
vt 0.375000 0.500000
vt 0.125000 0.750000
vn 0.0118 0.9999 0.0000
vn 0.0000 0.0000 -1.0000
vn 0.9356 -0.3531 0.0000
vn -0.0118 -0.9999 0.0000
vn -0.9356 0.3531 0.0000
vn 0.0000 0.0000 1.0000
usemtl Material.003
s off
f 17/29/13 21/30/13 23/31/13 19/32/13
f 20/33/14 19/32/14 23/34/14 24/35/14
f 24/36/15 23/37/15 21/38/15 22/39/15
f 22/40/16 18/41/16 20/33/16 24/42/16
f 18/41/17 17/29/17 19/32/17 20/33/17
f 22/39/18 21/38/18 17/29/18 18/41/18
o Cube.002
v 0.940992 0.939062 -4.457673
v 1.647139 -0.932129 -4.457673
v 0.940992 0.939062 -4.215778
v 1.647139 -0.932129 -4.215779
v 0.352861 0.932129 -4.457673
v 1.059008 -0.939062 -4.457673
v 0.352861 0.932129 -4.215778
v 1.059008 -0.939062 -4.215778
vt 0.625000 0.500000
vt 0.875000 0.500000
vt 0.875000 0.750000
vt 0.625000 0.750000
vt 0.375000 0.750000
vt 0.625000 1.000000
vt 0.375000 1.000000
vt 0.375000 0.000000
vt 0.625000 0.000000
vt 0.625000 0.250000
vt 0.375000 0.250000
vt 0.125000 0.500000
vt 0.375000 0.500000
vt 0.125000 0.750000
vn -0.0118 0.9999 0.0000
vn 0.0000 0.0000 1.0000
vn -0.9356 -0.3531 0.0000
vn 0.0118 -0.9999 0.0000
vn 0.9356 0.3531 -0.0000
vn 0.0000 -0.0000 -1.0000
usemtl Material.002
s off
f 25/43/19 29/44/19 31/45/19 27/46/19
f 28/47/20 27/46/20 31/48/20 32/49/20
f 32/50/21 31/51/21 29/52/21 30/53/21
f 30/54/22 26/55/22 28/47/22 32/56/22
f 26/55/23 25/43/23 27/46/23 28/47/23
f 30/53/24 29/52/24 25/43/24 26/55/24
o Cube.004
v -1.207635 1.126164 0.362961
v -1.207635 0.873836 0.362961
v -1.207635 1.126164 -4.803116
v -1.207635 0.873836 -4.803116
v 1.207635 1.126164 0.362961
v 1.207635 0.873836 0.362961
v 1.207635 1.126164 -4.803116
v 1.207635 0.873836 -4.803116
vt 0.375000 0.000000
vt 0.375000 0.250000
vt 0.625000 0.250000
vt 0.625000 0.000000
vt 0.375000 0.500000
vt 0.625000 0.500000
vt 0.375000 0.750000
vt 0.625000 0.750000
vt 0.375000 1.000000
vt 0.625000 1.000000
vt 0.125000 0.500000
vt 0.125000 0.750000
vt 0.875000 0.750000
vt 0.875000 0.500000
vn -1.0000 0.0000 0.0000
vn 0.0000 0.0000 -1.0000
vn 1.0000 0.0000 0.0000
vn 0.0000 0.0000 1.0000
vn 0.0000 1.0000 0.0000
vn 0.0000 -1.0000 0.0000
usemtl None
s off
f 33/57/25 35/58/25 36/59/25 34/60/25
f 35/58/26 39/61/26 40/62/26 36/59/26
f 39/61/27 37/63/27 38/64/27 40/62/27
f 37/63/28 33/65/28 34/66/28 38/64/28
f 35/67/29 33/68/29 37/63/29 39/61/29
f 40/62/30 38/64/30 34/69/30 36/70/30
o Cube.005
v -0.836810 -0.173396 0.072195
v -0.836810 0.173396 0.072195
v -0.836810 -0.173396 -0.072195
v -0.836810 0.173396 -0.072195
v 0.836810 -0.173396 0.072195
v 0.836810 0.173396 0.072195
v 0.836810 -0.173396 -0.072195
v 0.836810 0.173396 -0.072195
vt 0.375000 0.000000
vt 0.625000 0.000000
vt 0.625000 0.250000
vt 0.375000 0.250000
vt 0.625000 0.500000
vt 0.375000 0.500000
vt 0.625000 0.750000
vt 0.375000 0.750000
vt 0.625000 1.000000
vt 0.375000 1.000000
vt 0.125000 0.500000
vt 0.125000 0.750000
vt 0.875000 0.500000
vt 0.875000 0.750000
vn -1.0000 0.0000 0.0000
vn 0.0000 0.0000 -1.0000
vn 1.0000 0.0000 0.0000
vn 0.0000 0.0000 1.0000
vn 0.0000 -1.0000 0.0000
vn 0.0000 1.0000 0.0000
usemtl None
s off
f 41/71/31 42/72/31 44/73/31 43/74/31
f 43/74/32 44/73/32 48/75/32 47/76/32
f 47/76/33 48/75/33 46/77/33 45/78/33
f 45/78/34 46/77/34 42/79/34 41/80/34
f 43/81/35 47/76/35 45/78/35 41/82/35
f 48/75/36 44/83/36 42/84/36 46/77/36
o Cube.006
v -0.836810 -0.173396 -4.261726
v -0.836810 0.173396 -4.261726
v -0.836810 -0.173396 -4.406116
v -0.836810 0.173396 -4.406116
v 0.836810 -0.173396 -4.261726
v 0.836810 0.173396 -4.261726
v 0.836810 -0.173396 -4.406116
v 0.836810 0.173396 -4.406116
vt 0.375000 0.000000
vt 0.625000 0.000000
vt 0.625000 0.250000
vt 0.375000 0.250000
vt 0.625000 0.500000
vt 0.375000 0.500000
vt 0.625000 0.750000
vt 0.375000 0.750000
vt 0.625000 1.000000
vt 0.375000 1.000000
vt 0.125000 0.500000
vt 0.125000 0.750000
vt 0.875000 0.500000
vt 0.875000 0.750000
vn -1.0000 0.0000 0.0000
vn 0.0000 0.0000 -1.0000
vn 1.0000 0.0000 0.0000
vn 0.0000 0.0000 1.0000
vn 0.0000 -1.0000 0.0000
vn 0.0000 1.0000 0.0000
usemtl None
s off
f 49/85/37 50/86/37 52/87/37 51/88/37
f 51/88/38 52/87/38 56/89/38 55/90/38
f 55/90/39 56/89/39 54/91/39 53/92/39
f 53/92/40 54/91/40 50/93/40 49/94/40
f 51/95/41 55/90/41 53/92/41 49/96/41
f 56/89/42 52/97/42 50/98/42 54/91/42
o Cube.007
v 0.205496 0.895345 -1.762876
v 0.205496 1.013852 -1.696183
v -0.205496 0.895345 -1.762876
v -0.205496 1.013852 -1.696183
v 0.205496 -0.064710 -0.056984
v 0.205496 0.053796 0.009710
v -0.205496 -0.064710 -0.056984
v -0.205496 0.053796 0.009710
vt 0.375000 0.000000
vt 0.375000 0.250000
vt 0.625000 0.250000
vt 0.625000 0.000000
vt 0.375000 0.500000
vt 0.625000 0.500000
vt 0.375000 0.750000
vt 0.625000 0.750000
vt 0.375000 1.000000
vt 0.625000 1.000000
vt 0.125000 0.500000
vt 0.125000 0.750000
vt 0.875000 0.750000
vt 0.875000 0.500000
vn 0.0000 0.4905 -0.8715
vn -1.0000 0.0000 -0.0000
vn 0.0000 -0.4905 0.8715
vn 1.0000 0.0000 0.0000
vn 0.0000 -0.8715 -0.4905
vn 0.0000 0.8715 0.4905
usemtl None
s off
f 57/99/43 59/100/43 60/101/43 58/102/43
f 59/100/44 63/103/44 64/104/44 60/101/44
f 63/103/45 61/105/45 62/106/45 64/104/45
f 61/105/46 57/107/46 58/108/46 62/106/46
f 59/109/47 57/110/47 61/105/47 63/103/47
f 64/104/48 62/106/48 58/111/48 60/112/48
o Cube.008
v -0.205496 0.895345 -2.591955
v -0.205496 1.013852 -2.658649
v 0.205496 0.895345 -2.591955
v 0.205496 1.013852 -2.658649
v -0.205496 -0.064710 -4.297848
v -0.205496 0.053796 -4.364542
v 0.205496 -0.064710 -4.297848
v 0.205496 0.053796 -4.364542
vt 0.375000 0.000000
vt 0.375000 0.250000
vt 0.625000 0.250000
vt 0.625000 0.000000
vt 0.375000 0.500000
vt 0.625000 0.500000
vt 0.375000 0.750000
vt 0.625000 0.750000
vt 0.375000 1.000000
vt 0.625000 1.000000
vt 0.125000 0.500000
vt 0.125000 0.750000
vt 0.875000 0.750000
vt 0.875000 0.500000
vn 0.0000 0.4905 0.8715
vn 1.0000 0.0000 -0.0000
vn 0.0000 -0.4905 -0.8715
vn -1.0000 0.0000 0.0000
vn 0.0000 -0.8715 0.4905
vn 0.0000 0.8715 -0.4905
usemtl None
s off
f 65/113/49 67/114/49 68/115/49 66/116/49
f 67/114/50 71/117/50 72/118/50 68/115/50
f 71/117/51 69/119/51 70/120/51 72/118/51
f 69/119/52 65/121/52 66/122/52 70/120/52
f 67/123/53 65/124/53 69/119/53 71/117/53
f 72/118/54 70/120/54 66/125/54 68/126/54
